<?xml version="1.0" encoding="utf-8"?>
<!-- Generator: Adobe Illustrator 27.0.0, SVG Export Plug-In . SVG Version: 6.00 Build 0)  -->
<svg version="1.1" id="Layer_1" xmlns="http://www.w3.org/2000/svg" xmlns:xlink="http://www.w3.org/1999/xlink" x="0px" y="0px"
	 viewBox="0 0 842.04 827.07" style="enable-background:new 0 0 842.04 827.07;" xml:space="preserve">
<style type="text/css">
	.st0{fill:#FFFFFF;}
	.st1{fill-rule:evenodd;clip-rule:evenodd;fill:#FFFFFF;}
	.st2{fill:#E11F1C;}
	.st3{fill-rule:evenodd;clip-rule:evenodd;}
</style>
<g>
	<g>
	</g>
	<g>
		<g>
			<g>
				<path class="st2" d="M779.66,413.54c0,187.89-141.37,342.77-323.54,364.07c-14.11,1.65-28.47,2.5-43.03,2.5
					c-22.73,0-44.99-2.07-66.58-6.03C175.85,742.76,46.52,593.25,46.52,413.54c0-202.45,164.12-366.57,366.57-366.57
					S779.66,211.08,779.66,413.54z"/>
			</g>
			<g>
				<g>
					<path class="st0" d="M545.99,305.03c0,13.01-10.59,23.6-23.6,23.6c-13.01,0-23.6-10.59-23.6-23.6c0-13.01,10.58-23.6,23.6-23.6
						C535.41,281.43,545.99,292.01,545.99,305.03z"/>
				</g>
				<g>
					<path class="st0" d="M414.79,312.47c-55.73,0-101.07,45.34-101.07,101.07c0,55.73,45.34,101.07,101.07,101.07
						c55.73,0,101.07-45.34,101.07-101.07C515.86,357.8,470.52,312.47,414.79,312.47z M414.79,479.27
						c-36.25,0-65.73-29.49-65.73-65.73c0-36.24,29.49-65.73,65.73-65.73c36.24,0,65.73,29.49,65.73,65.73
						C480.52,449.78,451.03,479.27,414.79,479.27z"/>
				</g>
				<g>
					<path class="st0" d="M495.51,207.71H330.68c-68.04,0-123.4,55.36-123.4,123.4v164.83c0,68.04,55.36,123.4,123.4,123.4h164.83
						c68.05,0,123.41-55.36,123.41-123.4V331.12C618.91,263.07,563.55,207.71,495.51,207.71z M581.28,495.95
						c0,47.3-38.48,85.77-85.78,85.77H330.68c-47.3,0-85.77-38.48-85.77-85.77V331.12c0-47.3,38.48-85.77,85.77-85.77h164.83
						c47.3,0,85.78,38.48,85.78,85.77V495.95z"/>
				</g>
			</g>
		</g>
	</g>
</g>
</svg>
