<?xml version="1.0" encoding="utf-8"?>
<!-- Generator: Adobe Illustrator 27.0.0, SVG Export Plug-In . SVG Version: 6.00 Build 0)  -->
<svg version="1.1" id="Layer_1" xmlns="http://www.w3.org/2000/svg" xmlns:xlink="http://www.w3.org/1999/xlink" x="0px" y="0px"
	 viewBox="0 0 842.04 827.07" style="enable-background:new 0 0 842.04 827.07;" xml:space="preserve">
<style type="text/css">
	.st0{fill:#FFFFFF;}
	.st1{fill-rule:evenodd;clip-rule:evenodd;fill:#FFFFFF;}
	.st2{fill:#E11F1C;}
	.st3{fill-rule:evenodd;clip-rule:evenodd;}
</style>
<g>
	<g>
	</g>
	<g>
		<g>
			<g>
				<path class="st2" d="M774.82,410.53c0,187.89-141.37,342.77-323.54,364.07c-14.11,1.65-28.47,2.5-43.03,2.5
					c-22.73,0-44.99-2.07-66.58-6.03C171.01,739.75,41.68,590.24,41.68,410.53c0-202.45,164.12-366.57,366.57-366.57
					S774.82,208.07,774.82,410.53z"/>
			</g>
			<g>
				<path class="st0" d="M459.55,275.14v67.8h101.89l-16.85,104.48h-85.04V701.8c-14.54,1.7-29.34,2.58-44.34,2.58
					c-23.43,0-46.36-2.13-68.6-6.22V447.42h-92.6V342.94h92.6v-79.63c0-90.58,53.96-140.62,136.51-140.62
					c39.55,0,80.91,7.06,80.91,7.06v88.95h-45.57C473.56,218.7,459.55,246.56,459.55,275.14z"/>
			</g>
		</g>
	</g>
</g>
</svg>
