<?xml version="1.0" encoding="utf-8"?>
<!-- Generator: Adobe Illustrator 27.0.0, SVG Export Plug-In . SVG Version: 6.00 Build 0)  -->
<svg version="1.1" id="Layer_1" xmlns="http://www.w3.org/2000/svg" xmlns:xlink="http://www.w3.org/1999/xlink" x="0px" y="0px"
	 viewBox="0 0 842.04 827.07" style="enable-background:new 0 0 842.04 827.07;" xml:space="preserve">
<style type="text/css">
	.st0{fill:#FFFFFF;}
	.st1{fill-rule:evenodd;clip-rule:evenodd;fill:#FFFFFF;}
	.st2{fill:#E11F1C;}
	.st3{fill-rule:evenodd;clip-rule:evenodd;}
</style>
<g>
	<g>
		<g>
			<g>
				<circle class="st2" cx="424.98" cy="413.53" r="366.57"/>
			</g>
			<g>
				<g>
					<path class="st0" d="M596.06,458.88v125.09h-70.84V473.08c0-26.47-0.52-60.48-36.85-60.48c-36.9,0-42.53,28.81-42.53,58.55
						v112.81h-70.85V355.9h68v30.61c0,0.32,0.26,0.58,0.58,0.58c0.21,0,0.41-0.12,0.51-0.31c9.58-17.86,32.64-36.53,66.97-36.53
						C582.82,350.25,596.06,397.46,596.06,458.88z"/>
				</g>
				<g>
					<g>
						<rect x="258.98" y="355.36" class="st0" width="72.07" height="229.14"/>
					</g>
					<g>
						<g>
							<path class="st0" d="M581.41,381.25c-13.38-21.22-36.23-31.53-69.87-31.53c-15.73,0-30.62,4.03-43.04,11.65
								c-10.47,6.42-19.13,15.36-24.4,25.17c-0.01,0.02-0.02,0.02-0.04,0.02c-0.03,0-0.05-0.02-0.05-0.05v-31.15h-69.07V584.5h71.92
								V471.15c0-28.69,4.99-58.01,41.99-58.01c36.31,0,36.31,34.65,36.31,59.95V584.5h71.91V458.88
								C597.08,422.38,592.25,398.44,581.41,381.25z"/>
						</g>
						<g>
							<rect x="257.96" y="354.83" class="st0" width="73.14" height="230.21"/>
						</g>
						<g>
							
								<ellipse transform="matrix(0.9732 -0.2298 0.2298 0.9732 -57.2823 75.3685)" class="st0" cx="295.01" cy="283.67" rx="41.64" ry="41.64"/>
						</g>
					</g>
					<g>
						
							<ellipse transform="matrix(0.9239 -0.3827 0.3827 0.9239 -86.1364 134.3038)" class="st0" cx="294.53" cy="283.67" rx="41.1" ry="41.1"/>
					</g>
				</g>
			</g>
		</g>
	</g>
</g>
</svg>
